<svg xmlns="http://www.w3.org/2000/svg" width="14" height="14" viewBox="0 0 14 14">
    <path fill="#F4F63D" fill-rule="evenodd" d="M8.362 7a1.362 1.362 0 0 1-2.724 0 1.362 1.362 0 0 1 2.724 0M7 9.458a2.458 2.458 0 0 1-2.455-2.456A2.458 2.458 0 0 1 7 4.546a2.458 2.458 0 0 1 2.455 2.456A2.458 2.458 0 0 1 7 9.458m6.4-3.706c-.39-.043-1.196-.146-1.204-.147l-.007-.001a.866.866 0 0 1-.662-.837c0-.164.05-.323.144-.447h.001c.038-.061.182-.253.734-.971a.625.625 0 0 0-.013-.794 5.806 5.806 0 0 0-.947-.947.65.65 0 0 0-.413-.149.59.59 0 0 0-.38.134l-.956.736-.008.005a.952.952 0 0 1-.47.14.841.841 0 0 1-.822-.695L8.249.6a.673.673 0 0 0-.58-.567 6.713 6.713 0 0 0-1.338 0A.673.673 0 0 0 5.75.6l-.147 1.176a.838.838 0 0 1-.824.699.906.906 0 0 1-.503-.157l-.93-.723a.59.59 0 0 0-.38-.135.65.65 0 0 0-.412.148c-.351.278-.67.597-.947.947a.608.608 0 0 0-.016.793l.707.928a.808.808 0 0 1 .174.492c0 .42-.305.773-.726.838l-1.148.147a.655.655 0 0 0-.566.579 6.858 6.858 0 0 0 0 1.341c.04.3.274.54.566.58l1.146.147a.826.826 0 0 1 .554 1.33l-.705.926a.625.625 0 0 0 .013.794c.278.35.596.67.947.947a.651.651 0 0 0 .404.148c.15 0 .29-.048.387-.132l.928-.723a.908.908 0 0 1 .507-.16c.406 0 .76.3.823.698l.001.01.147 1.168c.04.292.279.525.58.566.23.015.456.029.669.029.213 0 .44-.014.672-.03a.672.672 0 0 0 .577-.566l.147-1.175c.083-.414.421-.7.824-.7.18 0 .354.053.476.145l.956.736c.1.086.24.134.39.134a.57.57 0 0 0 .402-.146c.353-.28.671-.598.948-.948a.625.625 0 0 0 .016-.793c-.554-.717-.698-.911-.736-.974l-.001.001a.761.761 0 0 1-.144-.462c0-.396.28-.742.664-.823.013-.001.819-.104 1.211-.147a.673.673 0 0 0 .565-.582c.044-.45.044-.901 0-1.339a.673.673 0 0 0-.566-.579"/>
</svg>
