<svg xmlns="http://www.w3.org/2000/svg" width="135" height="32" viewBox="0 0 135 32">
    <defs>
        <filter id="a" width="101.4%" height="136.7%" x="-.5%" y="-11.7%" filterUnits="objectBoundingBox">
            <feOffset dy="2" in="SourceAlpha" result="shadowOffsetOuter1"/>
            <feGaussianBlur in="shadowOffsetOuter1" result="shadowBlurOuter1" stdDeviation="2"/>
            <feColorMatrix in="shadowBlurOuter1" result="shadowMatrixOuter1" values="0 0 0 0 0 0 0 0 0 0 0 0 0 0 0 0 0 0 0.1 0"/>
            <feMerge>
                <feMergeNode in="shadowMatrixOuter1"/>
                <feMergeNode in="SourceGraphic"/>
            </feMerge>
        </filter>
    </defs>
    <g fill="#F0F2F6" fill-rule="evenodd" filter="url(#a)" opacity=".7" transform="translate(-1131 -16)">
        <path d="M1159.427 31.98v-4.215l-4.07-2.35v-4.702l-3.654-2.108v4.7l-4.07-2.35v4.217l4.071 2.35v4.701l3.652 2.11V29.63l4.07 2.349h.001zm-.21.367l-3.442-1.988v3.973l3.443-1.985zm-3.86 6.686v-3.975l-3.443 1.988 3.442 1.987zm-.21.363l-4.072-2.35 4.071-2.351-3.652-2.109-4.071 2.35-4.071-2.35-3.653 2.109 4.072 2.35-4.072 2.351 3.653 2.109 4.071-2.35 4.072 2.35 3.651-2.109zm-16.076-5.062V30.36l-3.442 1.985 3.442 1.99zm4.49-15.73v3.975l3.443-1.987-3.442-1.988zm0 13.62l3.653 2.108v-4.217l-3.652-2.108v4.217zm3.862-6.689l-3.652 2.109 3.652 2.108 3.652-2.108-3.652-2.109zm12.423 1.988v4.943l-4.071 2.35v4.701l-4.28 2.472-4.072-2.351-4.071 2.35-4.28-2.471v-4.7L1135 32.465v-4.943l4.071-2.35V20.47l4.28-2.471 4.072 2.35 4.071-2.35 4.28 2.471v4.701l4.072 2.351zM1257.528 32.42c-.26.534-.608.961-1.043 1.282-.434.32-.935.551-1.503.691-.568.14-1.159.21-1.773.21h-1.527a.097.097 0 0 1-.097-.096v-8.103c0-.054.044-.097.097-.097h1.607a7.3 7.3 0 0 1 1.713.2 4.176 4.176 0 0 1 1.483.672 3.36 3.36 0 0 1 1.043 1.262c.26.528.39 1.193.39 1.994 0 .789-.13 1.45-.39 1.984zm3.256-5.352c-.467-.908-1.082-1.633-1.843-2.174a7.449 7.449 0 0 0-2.606-1.163 12.694 12.694 0 0 0-2.966-.35h-5.033a.097.097 0 0 0-.097.097v13.995c0 .053.043.097.097.097h5.193c.976 0 1.938-.137 2.886-.41a7.603 7.603 0 0 0 2.556-1.283 6.488 6.488 0 0 0 1.823-2.225c.461-.902.692-1.974.692-3.217 0-1.336-.234-2.458-.702-3.367zm-19.181 4.97h-3.29a.097.097 0 0 1-.09-.13l1.663-4.49a.097.097 0 0 1 .182 0l1.626 4.49a.097.097 0 0 1-.091.13zm.123-8.597a.097.097 0 0 0-.09-.06h-3.197a.097.097 0 0 0-.09.06l-5.87 13.994a.097.097 0 0 0 .09.135h3.514c.04 0 .076-.025.09-.063l.995-2.66a.097.097 0 0 1 .091-.063h5.358c.04 0 .076.025.09.062l1.054 2.663c.015.037.05.06.09.06h3.597c.07 0 .116-.07.09-.133l-5.812-13.995zm-11.296 5.16c-.134.221-.317.398-.551.532a2.469 2.469 0 0 1-.792.28c-.294.054-.6.08-.922.08h-1.345a.097.097 0 0 1-.098-.097v-3.152c0-.054.044-.098.098-.098h1.406c.307 0 .604.02.891.06.288.04.545.12.772.241a1.4 1.4 0 0 1 .541.501c.134.214.2.488.2.822 0 .334-.066.611-.2.832zm3.167 1.243c.307-.568.46-1.266.46-2.094 0-.815-.143-1.5-.43-2.055a3.595 3.595 0 0 0-1.183-1.342 5.13 5.13 0 0 0-1.763-.742 9.794 9.794 0 0 0-2.175-.23h-5.113a.097.097 0 0 0-.098.097v13.995c0 .053.044.097.098.097h3.232a.097.097 0 0 0 .097-.097v-5.157c0-.054.044-.097.098-.097h1.606c.735 0 1.443-.08 2.124-.24a5.477 5.477 0 0 0 1.804-.762 3.787 3.787 0 0 0 1.243-1.373zm-12.06 4.897v2.732a.097.097 0 0 1-.096.097h-9.706a.097.097 0 0 1-.097-.097V23.478c0-.054.043-.097.097-.097h9.345c.054 0 .097.043.097.097v2.692a.097.097 0 0 1-.097.097h-6.039a.097.097 0 0 0-.097.097v2.491c0 .054.044.097.097.097h5.698c.054 0 .098.044.098.097v2.552a.097.097 0 0 1-.098.097h-5.698a.097.097 0 0 0-.097.097v2.752c0 .053.044.097.097.097h6.4c.053 0 .097.043.097.097zm-15.413-2.322c-.26.535-.608.962-1.042 1.283-.434.32-.935.551-1.503.691-.568.14-1.159.21-1.773.21h-1.527a.097.097 0 0 1-.097-.096v-8.103c0-.054.044-.097.097-.097h1.607a7.3 7.3 0 0 1 1.713.2 4.176 4.176 0 0 1 1.483.672 3.36 3.36 0 0 1 1.042 1.262c.261.528.391 1.193.391 1.994 0 .789-.13 1.45-.39 1.984zm1.413-7.525a7.45 7.45 0 0 0-2.605-1.163 12.694 12.694 0 0 0-2.966-.35h-5.034a.097.097 0 0 0-.097.097v13.995c0 .053.044.097.097.097h5.194c.975 0 1.937-.137 2.886-.41a7.603 7.603 0 0 0 2.555-1.283 6.488 6.488 0 0 0 1.824-2.225c.461-.902.692-1.974.692-3.217 0-1.336-.234-2.458-.702-3.367-.468-.908-1.082-1.633-1.844-2.174zm-27.459 10.647a.098.098 0 0 1 .006.136 6.772 6.772 0 0 1-2.262 1.642c-.922.421-1.984.632-3.186.632-1.096 0-2.108-.18-3.037-.541a7.131 7.131 0 0 1-2.415-1.533 7.1 7.1 0 0 1-1.603-2.375c-.387-.922-.581-1.937-.581-3.047 0-1.135.197-2.164.591-3.086a6.863 6.863 0 0 1 1.634-2.355 7.236 7.236 0 0 1 2.445-1.493 8.625 8.625 0 0 1 3.026-.521c1.002 0 1.987.177 2.956.531.936.342 1.7.837 2.293 1.484a.097.097 0 0 1-.004.135l-2.18 2.18a.098.098 0 0 1-.146-.01 2.882 2.882 0 0 0-1.196-.893 4.192 4.192 0 0 0-1.603-.32c-.601 0-1.152.11-1.653.33a3.88 3.88 0 0 0-1.293.912c-.36.388-.641.845-.842 1.373-.2.528-.3 1.105-.3 1.733 0 .642.1 1.23.3 1.764.2.535.478.992.832 1.373.354.38.778.678 1.273.892.494.213 1.035.32 1.623.32.681 0 1.276-.133 1.784-.4a3.484 3.484 0 0 0 1.157-.956.097.097 0 0 1 .144-.012l2.237 2.105zm11.454-3.077a.661.661 0 0 1-.328.568l-3.328 1.929a.661.661 0 0 1-.662 0l-3.33-1.929a.661.661 0 0 1-.329-.571v-3.86c0-.235.126-.452.33-.57l3.327-1.929a.661.661 0 0 1 .663 0l3.328 1.928a.661.661 0 0 1 .33.572v3.862zm-3.988-9.35a7.418 7.418 0 1 0 0 14.837 7.418 7.418 0 0 0 0-14.837z"/>
    </g>
</svg>
